<?xml version="1.0" encoding="UTF-8"?>
<svg id="Layer_1" data-name="Layer 1" xmlns="http://www.w3.org/2000/svg" viewBox="0 0 425.45 456.97">
  <defs>
    <style>
      .cls-1 {
        fill: #f0f4f7;
      }

      .cls-1, .cls-2 {
        stroke-width: 0px;
      }

      .cls-2 {
        fill: #f4f8fb;
      }
    </style>
  </defs>
  <path class="cls-2" d="M219.76.06l1.38-.05c1.01-.04,2.03.12,2.94.55,3.74,1.76,6.12,5.3,8.22,8.97.1.17.19.34.27.52.96,2.03,1.85,4.08,2.72,6.15.35.8.7,1.61,1.05,2.43,1.13,2.62,2.25,5.24,3.36,7.87,1.18,2.76,2.37,5.51,3.56,8.26.81,1.88,1.62,3.76,2.43,5.64,2.71,6.3,5.5,12.56,8.34,18.8.74,1.64,1.48,3.27,2.23,4.91,1.06,2.33,2.12,4.65,3.19,6.97,7.64,16.54,7.93,17.18,7,22.11-.08.41-.19.82-.34,1.21-1.66,4.27-3.64,8.31-5.74,12.39-1.68,3.3-3.23,6.66-4.79,10.01-.64,1.37-1.29,2.73-1.93,4.1-5.48,11.62-10.94,23.24-16.31,34.92-10.09,21.94-20.38,43.79-30.93,65.51-5.33,9.75-5.82,10.64-6.77,19.54-.21,2,.46,4.01,1.91,5.41,4.02,3.87,9.1,6.05,14.22,8.61,2.27,1.15,4.54,2.31,6.8,3.47,1.14.58,2.28,1.16,3.45,1.76,4.84,2.5,9.61,5.13,14.37,7.77,8.63,4.76,17.38,9.22,26.21,13.59,5.89,2.92,11.74,5.89,17.54,8.97,9.02,4.79,18.1,9.46,27.19,14.12q36.89,18.94,54.88,28.44c.67.35,1.33.7,2.02,1.06,1.71.91,3.41,1.83,5.11,2.75.75.4,1.51.8,2.28,1.21.27.15.55.31.8.49,5.05,3.62,7.24,8.77,9.61,14.36.35.79.69,1.59,1.05,2.41.75,1.72,1.49,3.44,2.23,5.16,1.98,4.62,3.99,9.23,6,13.84.41.95.83,1.9,1.25,2.88,4.76,10.95,9.67,21.82,14.59,32.7.36.8.72,1.59,1.09,2.41q.53,1.17,1.07,2.36c1.02,2.27,2.04,4.54,3.06,6.81,1.32,2.95,2.67,5.88,4.05,8.8.65,1.41,1.3,2.82,1.95,4.23q.45.94.91,1.89c1.91,4.21,2.34,7.49,2.16,11.74-.05,1.28-.46,2.53-1.22,3.56-.41.55-.83.9-1.81,1.72l-.57.52c-.78.71-1.7,1.25-2.72,1.5-3.8.91-7.84.09-11.55-1.23-.24-.08-.47-.18-.7-.29-2.04-.97-4.03-2-6.02-3.07-.78-.41-1.57-.81-2.37-1.23-2.53-1.32-5.05-2.66-7.57-4-1.75-.92-3.51-1.84-5.27-2.75-2.63-1.37-5.27-2.75-7.9-4.13-7.17-3.76-14.39-7.4-21.65-10.99-7.66-3.8-15.25-7.69-22.79-11.72-8.58-4.54-17.27-8.83-25.96-13.16-9.95-4.95-19.88-9.92-29.68-15.16-8.78-4.66-17.7-9.04-26.6-13.47-8.82-4.39-17.61-8.83-26.3-13.48-8.06-4.28-16.25-8.32-24.42-12.39q-18.09-9.01-26.38-13.44c-9.9-5.3-19.98-10.26-30.03-15.26-9.42-4.69-18.81-9.4-28.09-14.38-4.08-2.18-8.19-4.27-12.35-6.29-1-.49-2-.98-3.04-1.49-1.94-.94-3.88-1.88-5.83-2.81-4.95-2.42-9.47-4.66-12.39-9.25-.63-.99-.96-2.17-.99-3.34-.1-4.53.9-7.79,3.03-12.17.31-.65.62-1.3.94-1.98,1.03-2.14,2.07-4.28,3.12-6.41.73-1.52,1.46-3.03,2.19-4.55,1.51-3.15,3.03-6.3,4.55-9.45,3.14-6.51,6.21-13.05,9.27-19.59,1.65-3.52,3.31-7.05,4.97-10.57,2.37-5.03,4.73-10.05,7.09-15.08,7-14.91,14.03-29.79,21.2-44.61,4.36-9.03,8.57-18.11,12.78-27.21,3.9-8.42,7.89-16.78,11.94-25.12,5.02-10.35,9.92-20.74,14.74-31.18,5.73-12.39,11.59-24.7,17.46-37.02.38-.81.77-1.62,1.17-2.45.76-1.6,1.53-3.2,2.29-4.8,1.88-3.93,3.73-7.88,5.52-11.85.35-.77.7-1.54,1.06-2.34.66-1.45,1.3-2.9,1.94-4.35,2.77-6.07,5.99-11.21,13.25-11.25Z"/>
  <path class="cls-2" d="M68.36,313.68c.64.08,1.27.24,1.88.46,2.86,1.08,5.51,2.47,8.21,3.92.87.45,1.74.9,2.64,1.37,7.09,3.7,14.1,7.56,21.11,11.43,8.46,4.65,17.04,9.06,25.63,13.46,12.95,6.63,25.82,13.38,38.5,20.5l2.62,1.45c.22.12.44.25.65.39,1.16.77,1.59,1.1,2.31,2.07.93,1.26,1.5,2.75,1.67,4.31.04.34.07.65.1.94.27,2.79-.79,5.53-2.86,7.43-2.7,2.48-5.54,4.15-9.22,5.84q-.98.46-1.98.92c-2.15,1-4.31,1.98-6.47,2.96-1.53.71-3.05,1.41-4.58,2.12-3.17,1.47-6.34,2.93-9.52,4.39-6.56,3.02-13.09,6.11-19.62,9.19-3.53,1.67-7.06,3.33-10.6,4.99-1.42.67-2.83,1.33-4.25,2q-8.5,4-10.62,5c-1.42.67-2.83,1.33-4.25,2-3.53,1.66-7.06,3.32-10.59,4.98-7.26,3.42-14.52,6.83-21.77,10.26-7.09,3.35-14.19,6.69-21.3,10.02-2.35,1.1-4.69,2.2-7.04,3.31-2.8,1.32-5.61,2.63-8.42,3.93q-1.16.55-2.34,1.11c-2.76,1.26-5.13,2.22-7.79,2.5-2.85.3-5.65-.93-7.49-3.11h0s-.44-.49-.44-.49c-.89-.99-1.57-2.17-1.93-3.45-.9-3.14-.67-6.4.22-9.62.1-.36.23-.72.37-1.07.86-2.07,1.78-4.09,2.75-6.12.38-.83.76-1.65,1.15-2.5,1.24-2.7,2.5-5.38,3.76-8.07.87-1.89,1.74-3.78,2.61-5.67,1.77-3.84,3.55-7.68,5.33-11.52,2.29-4.93,4.56-9.87,6.81-14.82.33-.72.66-1.45,1-2.2.65-1.43,1.31-2.87,1.96-4.3,1.61-3.53,3.23-7.07,4.85-10.6,2.39-5.21,4.77-10.43,7.15-15.65,1.44-3.16,2.87-6.31,4.31-9.47.68-1.48,1.35-2.97,2.02-4.46,3.33-7.34,6.7-14.65,10.23-21.9.55-1.13,1.1-2.26,1.66-3.42,2.84-4.89,6.56-5.45,11.6-4.82Z"/>
  <path class="cls-1" d="M298.93,182.51c2.35-3.53,7.68-3.1,9.53.71,5.16,10.67,10.21,21.39,15.04,32.21.48,1.06.96,2.12,1.46,3.21.44,1,.88,1.99,1.33,3.02l1.05,2.35c.09.2.17.41.24.62.03.09.05.17.08.26,1.32,4.4-2.92,8.42-7.22,6.8-.03-.01-.07-.02-.1-.04-.2-.08-.41-.17-.6-.27-1.14-.59-2.28-1.19-3.41-1.8-.66-.34-1.32-.69-2.01-1.04-2.11-1.1-4.22-2.23-6.32-3.35-1.4-.73-2.81-1.47-4.21-2.2-5.47-2.87-10.86-5.79-16.1-9.03-2.18-1.35-3.17-4.02-2.36-6.46.74-2.22,1.77-4.26,3.04-6.54.61-1.1,1.23-2.2,1.86-3.33.65-1.14,1.29-2.27,1.96-3.45.64-1.14,1.28-2.29,1.93-3.47,2.16-3.84,3.63-6.44,4.81-8.2Z"/>
</svg>